<?xml version="1.0" standalone="no"?>
<!DOCTYPE svg PUBLIC "-//W3C//DTD SVG 20010904//EN"
 "http://www.w3.org/TR/2001/REC-SVG-20010904/DTD/svg10.dtd">
<svg version="1.0" xmlns="http://www.w3.org/2000/svg"
 width="100.000000pt" height="100.000000pt" viewBox="0 0 100.000000 100.000000"
 preserveAspectRatio="xMidYMid meet">

<g transform="translate(0.000000,100.000000) scale(0.100000,-0.100000)"
fill="#000000" stroke="none">
<path d="M264 852 c-68 -55 -53 -152 29 -187 l29 -12 -48 -12 c-35 -9 -61 -25
-96 -60 -70 -70 -64 -121 13 -121 l37 0 -13 -67 c-8 -38 -27 -105 -43 -150
l-29 -83 32 0 c35 0 34 -2 67 90 16 44 58 249 58 283 0 5 -19 6 -42 2 l-43 -7
21 21 c24 26 124 56 124 38 0 -7 -6 -35 -14 -62 -9 -36 -12 -95 -8 -208 l5
-157 33 0 34 0 0 78 c-1 42 -5 107 -9 144 -7 52 -5 83 9 143 10 42 22 80 26
85 5 4 51 18 102 30 92 22 93 23 87 49 -4 14 -8 27 -9 29 -2 1 -52 -9 -111
-23 -59 -14 -108 -25 -111 -25 -2 0 8 17 22 38 33 48 28 95 -16 135 -36 32
-102 37 -136 9z m94 -54 c7 -7 12 -21 12 -33 0 -47 -62 -63 -81 -21 -22 47 33
90 69 54z"/>
<path d="M691 809 c-25 -25 -31 -39 -31 -76 0 -36 6 -50 29 -74 24 -24 38 -29
76 -29 38 0 52 5 76 29 24 24 29 38 29 76 0 38 -5 52 -29 76 -24 23 -38 29
-74 29 -37 0 -51 -6 -76 -31z m107 -41 c7 -7 12 -21 12 -33 0 -12 -5 -26 -12
-33 -28 -28 -78 -7 -78 33 0 12 5 26 12 33 7 7 21 12 33 12 12 0 26 -5 33 -12z"/>
<path d="M600 604 c-40 -23 -50 -25 -90 -16 -25 6 -46 10 -47 9 -1 -1 -4 -14
-8 -29 -7 -26 -4 -28 51 -44 46 -13 62 -14 77 -5 34 22 31 2 -14 -86 -37 -74
-46 -102 -54 -180 l-11 -93 32 0 32 0 6 78 c5 58 14 91 36 133 16 31 39 83 51
115 27 75 30 78 72 70 23 -4 38 -14 46 -32 16 -35 9 -39 -29 -19 -18 9 -34 15
-36 13 -2 -2 -17 -33 -33 -68 l-29 -64 24 -86 c14 -47 27 -97 31 -112 5 -24
10 -28 40 -28 24 0 34 4 30 13 -2 7 -16 56 -31 109 -22 80 -24 101 -15 122 13
29 26 32 64 14 19 -8 31 -8 50 0 35 16 32 53 -8 127 -31 54 -37 60 -83 72 -72
19 -104 16 -154 -13z"/>
</g>
</svg>
