<?xml version="1.0" standalone="no"?>
<!DOCTYPE svg PUBLIC "-//W3C//DTD SVG 20010904//EN"
 "http://www.w3.org/TR/2001/REC-SVG-20010904/DTD/svg10.dtd">
<svg version="1.0" xmlns="http://www.w3.org/2000/svg"
 width="836.000000pt" height="597.000000pt" viewBox="0 0 836.000000 597.000000"
 preserveAspectRatio="xMidYMid meet">
<metadata>
Created by potrace 1.16, written by Peter Selinger 2001-2019
</metadata>
<g transform="translate(0.000000,597.000000) scale(0.100000,-0.100000)"
fill="#000000" stroke="none">
<path d="M2777 5814 c-12 -12 -8 -1360 4 -1387 9 -20 5 -35 -26 -97 -110 -219
-161 -419 -172 -683 l-6 -148 -26 6 c-14 4 -186 85 -381 182 -566 279 -890
439 -1265 623 -192 94 -422 207 -511 251 -88 43 -166 79 -172 79 -9 0 -11
-199 -10 -817 l3 -818 1241 -5 1242 -5 61 -120 c98 -192 221 -349 404 -513
l57 -51 0 -521 0 -520 314 0 c173 0 317 3 319 8 3 4 -96 202 -220 439 -123
238 -223 439 -221 448 2 13 18 8 87 -25 159 -77 400 -150 547 -165 38 -4 72
-13 76 -19 4 -6 8 -422 8 -923 l0 -913 369 0 c204 0 372 3 375 8 2 4 -29 138
-70 297 -41 160 -115 450 -166 645 -153 600 -188 732 -208 803 -10 37 -17 74
-14 81 3 8 36 18 82 26 157 24 376 90 481 145 28 14 35 14 42 3 5 -7 9 -156 9
-331 l0 -317 1613 2 c1244 2 1612 6 1612 15 0 7 -257 202 -571 435 -315 233
-845 625 -1178 871 -476 352 -606 454 -606 470 0 12 7 72 15 132 28 211 11
434 -51 648 -19 65 -34 120 -34 123 0 2 96 4 213 4 116 0 218 4 225 8 16 11 8
34 -19 50 -18 11 -1138 963 -1423 1210 -66 56 -124 101 -130 99 -7 -2 -13 -64
-16 -173 -5 -161 -6 -169 -25 -168 -11 1 -63 9 -115 18 -279 49 -586 22 -855
-75 -46 -17 -91 -29 -99 -27 -8 2 -186 158 -396 348 -209 190 -386 346 -393
348 -7 1 -16 0 -20 -4z"/>
</g>
</svg>
